<svg width="90" height="90" viewBox="0 0 90 90" fill="none" xmlns="http://www.w3.org/2000/svg">
<path d="M21.3478 29.8817C24.5216 29.8817 27.1035 32.4636 27.1035 35.6374C27.1035 38.8113 24.5216 41.3932 21.3478 41.3932C18.1739 41.3932 15.592 38.8113 15.592 35.6374C15.592 32.4636 18.1739 29.8817 21.3478 29.8817ZM21.3478 39.1519C23.2856 39.1519 24.8623 37.5753 24.8623 35.6374C24.8623 33.6996 23.2856 32.1229 21.3478 32.1229C19.4099 32.1229 17.8333 33.6996 17.8333 35.6374C17.8333 37.5753 19.4097 39.1519 21.3478 39.1519Z" fill="#0081B6"/>
<path d="M21.3476 37.1882C20.4911 37.1882 19.7968 36.4939 19.7968 35.6374C19.7968 34.781 20.4911 34.0867 21.3476 34.0867C22.204 34.0867 22.8983 34.781 22.8983 35.6374C22.8983 36.4939 22.204 37.1882 21.3476 37.1882Z" fill="#0081B6"/>
<path d="M76.3911 67.0886C79.5649 67.0886 82.1469 69.6705 82.1469 72.8444C82.1469 76.0182 79.5649 78.6001 76.3911 78.6001C73.2173 78.6001 70.6353 76.0182 70.6353 72.8444C70.6353 69.6705 73.2173 67.0886 76.3911 67.0886ZM76.3911 76.3589C78.329 76.3589 79.9056 74.7822 79.9056 72.8444C79.9056 70.9065 78.329 69.3299 76.3911 69.3299C74.4532 69.3299 72.8766 70.9065 72.8766 72.8444C72.8766 74.7822 74.453 76.3589 76.3911 76.3589Z" fill="#0081B6"/>
<path d="M76.391 74.3951C75.5346 74.3951 74.8403 73.7008 74.8403 72.8443C74.8403 71.9879 75.5346 71.2936 76.391 71.2936C77.2475 71.2936 77.9418 71.9879 77.9418 72.8443C77.9418 73.7008 77.2475 74.3951 76.391 74.3951Z" fill="#0081B6"/>
<path d="M60.4366 7.57932C63.6105 7.57932 66.1924 10.1612 66.1924 13.3351C66.1924 16.5089 63.6105 19.0908 60.4366 19.0908C57.2628 19.0908 54.6809 16.5089 54.6809 13.3351C54.6809 10.1612 57.2628 7.57932 60.4366 7.57932ZM60.4366 16.8496C62.3745 16.8496 63.9511 15.2729 63.9511 13.3351C63.9511 11.3972 62.3745 9.82057 60.4366 9.82057C58.4988 9.82057 56.9221 11.3972 56.9221 13.3351C56.9221 15.2729 58.4988 16.8496 60.4366 16.8496Z" fill="#0081B6"/>
<path d="M60.4366 14.8858C59.5801 14.8858 58.8858 14.1915 58.8858 13.3351C58.8858 12.4786 59.5801 11.7843 60.4366 11.7843C61.293 11.7843 61.9873 12.4786 61.9873 13.3351C61.9873 14.1915 61.293 14.8858 60.4366 14.8858Z" fill="#0081B6"/>
<path d="M34.9669 66.3083H46.5713C47.1903 66.3083 47.6919 66.8099 47.6919 67.4289C47.6919 68.0479 47.1903 68.5495 46.5713 68.5495H34.9669C34.3479 68.5495 33.8462 68.0479 33.8462 67.4289C33.8462 66.8099 34.3481 66.3083 34.9669 66.3083Z" fill="#0081B6"/>
<path d="M34.9669 71.8686H46.5713C47.1903 71.8686 47.6919 72.3703 47.6919 72.9893C47.6919 73.6083 47.1903 74.1099 46.5713 74.1099H34.9669C34.3479 74.1099 33.8462 73.6083 33.8462 72.9893C33.8462 72.3703 34.3481 71.8686 34.9669 71.8686Z" fill="#0081B6"/>
<path d="M34.9669 77.4292H46.5713C47.1903 77.4292 47.6919 77.9308 47.6919 78.5498C47.6919 79.1688 47.1903 79.6705 46.5713 79.6705H34.9669C34.3479 79.6705 33.8462 79.1688 33.8462 78.5498C33.8462 77.9308 34.3481 77.4292 34.9669 77.4292Z" fill="#0081B6"/>
<path d="M3.00492 26.4179H12.8133V19.1397C12.8133 18.8424 12.9315 18.5574 13.1415 18.3473L29.1631 2.32824C29.3731 2.11818 29.6582 2 29.9554 2H70.2639C70.8829 2 71.3845 2.50163 71.3845 3.12063V55.9125H88.8794C89.4984 55.9125 90 56.4141 90 57.0331V88.6554C90 89.2744 89.4984 89.776 88.8794 89.776H26.2637C25.6447 89.776 25.1431 89.2744 25.1431 88.6554V81.1209H13.9339C13.3149 81.1209 12.8133 80.6193 12.8133 80.0003V44.8571H3.00492C1.34802 44.8571 0 43.5091 0 41.8522V29.423C0 27.7659 1.34782 26.4179 3.00492 26.4179ZM28.8346 5.82583L16.6395 18.0191H28.8346V5.82583ZM27.3843 87.535H87.7587V58.1537H27.3843V87.535ZM15.0545 78.8797H25.1431V57.0331C25.1431 56.4141 25.6447 55.9125 26.2637 55.9125H69.1433V4.24126H31.0759V19.1397C31.0759 19.7587 30.5742 20.2604 29.9552 20.2604H15.0545V26.4179H27.5223C29.1792 26.4179 30.5272 27.7659 30.5272 29.4228V41.852C30.5272 43.5089 29.1792 44.8569 27.5223 44.8569H15.0545V78.8797ZM2.24126 41.8522C2.24126 42.2734 2.58377 42.6159 3.00492 42.6159H27.5223C27.9434 42.6159 28.2859 42.2734 28.2859 41.8522V29.423C28.2859 29.0019 27.9434 28.6594 27.5223 28.6594H3.00492C2.58377 28.6594 2.24126 29.0019 2.24126 29.423V41.8522Z" fill="#0081B6"/>
<path d="M5.95578 32.5828H13.2087C13.8277 32.5828 14.3293 33.0845 14.3293 33.7035C14.3293 34.3224 13.8277 34.8241 13.2087 34.8241H5.95578C5.33679 34.8241 4.83515 34.3224 4.83515 33.7035C4.83515 33.0845 5.33679 32.5828 5.95578 32.5828Z" fill="#0081B6"/>
<path d="M5.95578 36.4508H13.2087C13.8277 36.4508 14.3293 36.9524 14.3293 37.5714C14.3293 38.1904 13.8277 38.6921 13.2087 38.6921H5.95578C5.33679 38.6921 4.83515 38.1904 4.83515 37.5714C4.83515 36.9524 5.33679 36.4508 5.95578 36.4508Z" fill="#0081B6"/>
<path d="M78.7804 53.955C78.6443 54.4379 78.2036 54.7715 77.702 54.7715C77.2003 54.7715 76.7596 54.4379 76.6235 53.955L74.586 46.7288C74.5581 46.6298 74.5438 46.5275 74.5438 46.4246V8.41836C74.5438 7.79936 75.0455 7.29773 75.6645 7.29773H79.7395C80.3585 7.29773 80.8601 7.79936 80.8601 8.41836V46.4248C80.8601 46.5277 80.846 46.63 80.8179 46.729L78.7804 53.955ZM78.259 47.5454H77.1447L77.702 49.5216L78.259 47.5454ZM76.7851 9.53899V45.3042H78.6188V9.53899H76.7851Z" fill="#0081B6"/>
<path d="M88.8794 54.7717H84.8044C84.1854 54.7717 83.6837 54.2701 83.6837 53.6511V15.6446C83.6837 15.5417 83.6978 15.4394 83.7259 15.3404L85.7634 8.11416C85.8995 7.63127 86.3402 7.29773 86.8419 7.29773C87.3435 7.29773 87.7842 7.63127 87.9203 8.11416L89.9578 15.3404C89.9859 15.4394 90 15.5417 90 15.6446V53.6511C90 54.2698 89.4984 54.7717 88.8794 54.7717ZM87.7587 52.5304V16.7652H85.925V52.5304H87.7587ZM86.2846 14.524H87.3991L86.8419 12.5478L86.2846 14.524Z" fill="#0081B6"/>
</svg>
