<svg width="58" height="58" viewBox="0 0 58 58" fill="none" xmlns="http://www.w3.org/2000/svg">
<path d="M10.7719 22.1923C10.8927 21.3391 10.9847 20.4811 11.1382 19.6342C12.0087 14.837 15.4049 11.573 20.2609 11.4058C26.1077 11.2049 31.9723 11.1943 37.8182 11.4049C43.1035 11.5952 46.9311 15.5087 47.0962 20.7957C47.2719 26.4098 47.2719 32.0376 47.0962 37.6516C46.9311 42.9387 43.1048 46.8517 37.8186 47.0425C31.9727 47.2535 26.1069 47.2589 20.2614 47.0394C14.9752 46.8407 11.321 42.9183 10.9674 37.6233C10.9369 37.1653 10.8387 36.7113 10.7719 36.2555C10.7719 31.5676 10.7719 26.8797 10.7719 22.1923ZM29.0048 43.9091C31.6802 43.9091 34.3582 43.9892 37.0301 43.8905C41.2193 43.7352 43.796 41.235 43.8938 37.0498C44.015 31.8349 44.015 26.6129 43.8938 21.3975C43.796 17.2132 41.2175 14.6546 37.0301 14.5657C31.7152 14.4533 26.3945 14.4542 21.0796 14.5657C16.924 14.6529 14.3398 17.1597 14.2269 21.298C14.0836 26.5788 14.0836 31.869 14.2269 37.1498C14.3398 41.2877 16.924 43.7365 21.08 43.8905C23.7182 43.9887 26.3631 43.9091 29.0048 43.9091Z" fill="#002F5B"/>
<path d="M28.9999 19.9375C23.8695 19.9375 19.71 24.0966 19.71 29.227C19.71 34.3579 23.8695 38.517 28.9999 38.517C34.1307 38.517 38.2898 34.3579 38.2898 29.227C38.2898 24.0966 34.1307 19.9375 28.9999 19.9375ZM28.9999 35.3185C25.6355 35.3185 22.9084 32.5914 22.9084 29.227C22.9084 25.8626 25.6355 23.1355 28.9999 23.1355C32.3643 23.1355 35.0914 25.8626 35.0914 29.227C35.0914 32.5914 32.3643 35.3185 28.9999 35.3185Z" fill="#002F5B"/>
<path d="M41.0422 19.5135C41.0422 20.734 40.0528 21.7234 38.8324 21.7234C37.6119 21.7234 36.6221 20.734 36.6221 19.5135C36.6221 18.2927 37.6119 17.3032 38.8324 17.3032C40.0528 17.3032 41.0422 18.2927 41.0422 19.5135Z" fill="#002F5B"/>
</svg>
